<svg width="32" height="32" viewBox="0 0 32 32" fill="none" xmlns="http://www.w3.org/2000/svg">
<path d="M18.2788 19.9181C19.0192 19.4373 19.5818 18.7356 19.8832 17.9171C20.1847 17.0986 20.2091 16.2067 19.9527 15.3736C19.6964 14.5405 19.1729 13.8104 18.4598 13.2914C17.7468 12.7724 16.8821 12.4922 15.9937 12.4922C15.1054 12.4922 14.2407 12.7724 13.5276 13.2914C12.8146 13.8104 12.2911 14.5405 12.0347 15.3736C11.7784 16.2067 11.8027 17.0986 12.1042 17.9171C12.4057 18.7356 12.9683 19.4373 13.7086 19.9181C12.4375 20.376 11.3401 21.2044 10.5643 22.2918C9.78841 23.3792 9.37131 24.6734 9.36914 26H10.4725C10.4725 24.5662 11.054 23.1912 12.089 22.1773C13.124 21.1635 14.5278 20.5939 15.9916 20.5939C17.4553 20.5939 18.8591 21.1635 19.8941 22.1773C20.9291 23.1912 21.5106 24.5662 21.5106 26H22.614C22.6121 24.6739 22.1957 23.3801 21.4206 22.2928C20.6456 21.2054 19.5491 20.3767 18.2788 19.9181ZM15.9959 19.5131C15.3928 19.5156 14.8024 19.3428 14.2997 19.0164C13.7969 18.69 13.4044 18.2248 13.1718 17.6797C12.9391 17.1345 12.8769 16.5341 12.993 15.9543C13.1091 15.3745 13.3983 14.8416 13.8238 14.4229C14.2494 14.0043 14.7923 13.7187 15.3836 13.6025C15.975 13.4863 16.5883 13.5447 17.1458 13.7702C17.7033 13.9957 18.1799 14.3782 18.5152 14.8693C18.8506 15.3603 19.0296 15.9379 19.0296 16.5287C19.0297 17.318 18.7104 18.0751 18.1419 18.6345C17.5733 19.1938 16.8017 19.5097 15.9959 19.5131Z" fill="#365D96"/>
<path d="M23.7974 17.2258C24.316 16.8896 24.7505 16.4431 25.0686 15.9196C25.3866 15.396 25.58 14.809 25.6344 14.2021C25.6887 13.5953 25.6026 12.9842 25.3824 12.4144C25.1622 11.8447 24.8137 11.3309 24.3627 10.9114C23.9118 10.4919 23.37 10.1774 22.7778 9.99139C22.1855 9.80538 21.5581 9.75263 20.9422 9.83706C20.3263 9.92149 19.7377 10.1409 19.2204 10.479C18.703 10.8171 18.2702 11.2652 17.9541 11.7899C18.2965 11.9248 18.6233 12.0948 18.9291 12.2972C19.1239 11.987 19.3746 11.714 19.669 11.4914C20.0514 11.2066 20.4974 11.0149 20.9703 10.9322C21.4432 10.8495 21.9294 10.8782 22.3887 11.0158C22.8481 11.1534 23.2675 11.396 23.6122 11.7237C23.957 12.0514 24.2173 12.4546 24.3716 12.9002C24.5259 13.3458 24.5698 13.821 24.4997 14.2865C24.4296 14.752 24.2475 15.1945 23.9684 15.5774C23.6893 15.9604 23.3212 16.2729 22.8946 16.4891C22.4679 16.7053 21.9949 16.819 21.5145 16.8208C21.4166 16.8208 21.3186 16.8208 21.2251 16.8059C21.2064 17.1882 21.1437 17.5672 21.0379 17.9357C21.1968 17.9208 21.3513 17.9016 21.5145 17.9016C22.9752 17.9105 24.3735 18.483 25.4062 19.495C26.4389 20.507 27.0228 21.8769 27.0314 23.3077H28.1369C28.1341 21.9812 27.7168 20.6873 26.941 19.6C26.1652 18.5128 25.0682 17.6842 23.7974 17.2258Z" fill="#365D96"/>
<path d="M10.4764 17.8908C10.6374 17.8908 10.7941 17.91 10.9508 17.9249C10.8458 17.5564 10.7837 17.1773 10.7658 16.7951C10.6701 16.7951 10.5743 16.81 10.4764 16.81C10.1989 16.8097 9.92276 16.7717 9.65592 16.697C9.22508 16.579 8.82624 16.369 8.48796 16.0822C8.14968 15.7954 7.88035 15.4389 7.69925 15.0382C7.51815 14.6375 7.42976 14.2025 7.44043 13.7644C7.4511 13.3263 7.56056 12.8959 7.76096 12.5041C7.96136 12.1123 8.24774 11.7688 8.59959 11.4981C8.95144 11.2275 9.36005 11.0364 9.79615 10.9386C10.2322 10.8408 10.685 10.8386 11.1221 10.9324C11.5591 11.0261 11.9696 11.2133 12.324 11.4807C12.6191 11.7031 12.8705 11.9761 13.0661 12.2865C13.3717 12.0837 13.6985 11.9136 14.0411 11.7791C13.8463 11.4575 13.6076 11.1635 13.3317 10.9051C12.9134 10.531 12.4212 10.245 11.8855 10.065C11.3497 9.88491 10.782 9.81457 10.2174 9.85832C9.65275 9.90206 9.10332 10.059 8.60316 10.3193C8.10301 10.5796 7.6628 10.9378 7.3098 11.3717C6.95681 11.8055 6.69857 12.3058 6.55111 12.8415C6.40364 13.3771 6.37009 13.9367 6.45254 14.4856C6.53498 15.0345 6.73166 15.5609 7.03038 16.0323C7.32911 16.5036 7.7235 16.9098 8.18911 17.2257C6.91798 17.6836 5.8206 18.512 5.04474 19.5994C4.26887 20.6868 3.85178 21.9809 3.84961 23.3076H4.95298C4.96155 21.8764 5.54577 20.5062 6.57894 19.4941C7.61211 18.4821 9.01092 17.9099 10.472 17.9015L10.4764 17.8908Z" fill="#365D96"/>
<path d="M27.6607 13.4312C28.1382 13.1206 28.5447 12.7161 28.8541 12.2434C29.1635 11.7707 29.3693 11.2401 29.4582 10.6854C29.5471 10.1306 29.5173 9.56385 29.3707 9.021C29.2241 8.47815 28.9638 7.9711 28.6064 7.53204C28.249 7.09298 27.8024 6.73151 27.2948 6.47057C26.7872 6.20964 26.2297 6.05494 25.6578 6.01631C25.0859 5.97768 24.512 6.05595 23.9727 6.24617C23.4333 6.43638 22.9402 6.73437 22.5247 7.12122C22.2494 7.37967 22.0114 7.67373 21.8174 7.99524C22.1598 8.13014 22.4866 8.30021 22.7924 8.50259C22.9872 8.19235 23.2379 7.91933 23.5323 7.69679C23.8706 7.43936 24.2607 7.25506 24.677 7.15606C25.0933 7.05706 25.5262 7.04561 25.9474 7.12244C26.3685 7.19928 26.7682 7.36267 27.1202 7.60184C27.4721 7.84101 27.7684 8.15053 27.9893 8.51C28.2103 8.86948 28.351 9.27074 28.4021 9.68734C28.4532 10.104 28.4137 10.5264 28.286 10.927C28.1583 11.3275 27.9453 11.697 27.6613 12.011C27.3772 12.3251 27.0284 12.5766 26.6378 12.749C26.6874 13.0092 26.7129 13.2731 26.714 13.5378C26.7121 13.7793 26.6903 14.0202 26.6487 14.2583C27.8565 14.5387 28.9326 15.2095 29.7033 16.1625C30.4741 17.1155 30.8946 18.2951 30.8968 19.5109H32.0002C31.997 18.1848 31.5794 16.8914 30.8037 15.8045C30.0279 14.7177 28.9311 13.8895 27.6607 13.4312Z" fill="#FA6541"/>
<path d="M5.2753 13.54C5.28023 13.2744 5.30863 13.0098 5.36017 12.7491C4.92872 12.5564 4.54942 12.2673 4.25276 11.905C3.9561 11.5426 3.75035 11.1172 3.65204 10.6628C3.55373 10.2084 3.56561 9.73777 3.68671 9.2887C3.80781 8.83963 4.03476 8.42465 4.34934 8.07711C4.66391 7.72956 5.05732 7.45915 5.49796 7.28759C5.93861 7.11603 6.41419 7.0481 6.8865 7.08928C7.35881 7.13046 7.81466 7.27959 8.21744 7.52469C8.62022 7.76979 8.95869 8.10402 9.20565 8.50052C9.51194 8.29772 9.83953 8.12763 10.1828 7.99317C9.98798 7.67159 9.7493 7.37754 9.47335 7.11915C9.05801 6.73118 8.56478 6.43215 8.02503 6.24109C7.48528 6.05003 6.91083 5.97113 6.33824 6.0094C5.76566 6.04766 5.20748 6.20227 4.69923 6.46337C4.19097 6.72447 3.74377 7.08635 3.38608 7.52598C3.02839 7.96561 2.76806 8.47336 2.62163 9.01693C2.4752 9.56049 2.44589 10.128 2.53558 10.6832C2.62526 11.2385 2.83196 11.7694 3.14253 12.2421C3.4531 12.7149 3.86074 13.1191 4.3395 13.4291C3.06837 13.887 1.97099 14.7154 1.19513 15.8028C0.419262 16.8902 0.00216696 18.1843 0 19.511H1.10337C1.10564 18.2952 1.52608 17.1156 2.29683 16.1625C3.06759 15.2095 4.14369 14.5387 5.35147 14.2584C5.30637 14.0213 5.28089 13.781 5.2753 13.54Z" fill="#FA6541"/>
<path d="M15.9958 7.07843C16.6989 7.08097 17.3793 7.32287 17.9205 7.7627C18.4616 8.20254 18.8298 8.81295 18.962 9.48944C19.2827 9.29259 19.6341 9.14857 20.0023 9.06309C19.7752 8.19114 19.258 7.41812 18.5325 6.86604C17.807 6.31397 16.9145 6.01428 15.9958 6.01428C15.0771 6.01428 14.1846 6.31397 13.4591 6.86604C12.7336 7.41812 12.2164 8.19114 11.9893 9.06309C12.3574 9.1489 12.7087 9.2929 13.0295 9.48944C13.1614 8.81277 13.5295 8.20212 14.0707 7.76222C14.6119 7.32231 15.2925 7.08057 15.9958 7.07843Z" fill="#FA6541"/>
</svg>
