<svg width="24" height="24" viewBox="0 0 24 24" fill="none" xmlns="http://www.w3.org/2000/svg">
<path d="M6 12.0001V10.0001H18V12.0001M3.02868 10.0001L10.225 14.8167C10.8665 15.2444 11.1872 15.4582 11.5339 15.5413C11.8403 15.6147 12.1597 15.6147 12.4661 15.5413C12.8128 15.4582 13.1335 15.2444 13.775 14.8167L20.9713 10.0001M9.4472 4.60325L5.2472 7.24091C4.42682 7.75612 4.01662 8.01373 3.7191 8.36196C3.45577 8.67018 3.25764 9.02857 3.13667 9.4155C3 9.85266 3 10.337 3 11.3058V15.2001C3 16.8802 3 17.7203 3.32698 18.362C3.6146 18.9265 4.07354 19.3855 4.63803 19.6731C5.27976 20.0001 6.11984 20.0001 7.8 20.0001H16.2C17.8802 20.0001 18.7202 20.0001 19.362 19.6731C19.9265 19.3855 20.3854 18.9265 20.673 18.362C21 17.7203 21 16.8802 21 15.2001V11.3058C21 10.337 21 9.85266 20.8633 9.4155C20.7424 9.02857 20.5442 8.67018 20.2809 8.36196C19.9834 8.01373 19.5732 7.75612 18.7528 7.24091L14.5528 4.60325C13.6269 4.02181 13.164 3.73108 12.6673 3.61776C12.2281 3.51755 11.7719 3.51755 11.3327 3.61776C10.836 3.73108 10.3731 4.02181 9.4472 4.60325Z" stroke="#757E8A" stroke-width="2" stroke-linecap="round" stroke-linejoin="round"/>
</svg>
